<svg width="150" height="150" viewBox="0 0 150 150" fill="none" xmlns="http://www.w3.org/2000/svg">
<path d="M131.25 50H115.062L108.812 43.75H93.75C90.4378 43.7599 87.2642 45.08 84.9221 47.4221C82.58 49.7642 81.2599 52.9378 81.25 56.25V81.25C81.2599 84.5622 82.58 87.7358 84.9221 90.0779C87.2642 92.42 90.4378 93.7401 93.75 93.75H131.25C134.562 93.7401 137.736 92.42 140.078 90.0779C142.42 87.7358 143.74 84.5622 143.75 81.25V62.5C143.74 59.1878 142.42 56.0142 140.078 53.6721C137.736 51.33 134.562 50.0099 131.25 50V50ZM131.25 81.25H93.75V56.25H106.25L112.5 62.5H131.25V81.25Z" fill="#106085"/>
<path d="M131.25 106.25H115.062L108.812 100H93.75C90.4378 100.01 87.2642 101.33 84.9221 103.672C82.58 106.014 81.2599 109.188 81.25 112.5V137.5C81.2599 140.812 82.58 143.986 84.9221 146.328C87.2642 148.67 90.4378 149.99 93.75 150H131.25C134.562 149.99 137.736 148.67 140.078 146.328C142.42 143.986 143.74 140.812 143.75 137.5V118.75C143.74 115.438 142.42 112.264 140.078 109.922C137.736 107.58 134.562 106.26 131.25 106.25V106.25ZM131.25 137.5H93.75V112.5H106.25L112.5 118.75H131.25V137.5Z" fill="#106085"/>
<path d="M50 118.75V75H81.25V62.5H50V50H37.5V131.25H81.25V118.75H50Z" fill="#106085"/>
<path d="M62.5 6.25H46.3125L40.0625 0H25C21.6878 0.00989204 18.5142 1.33003 16.1721 3.67209C13.83 6.01416 12.5099 9.18784 12.5 12.5V37.5C12.5099 40.8122 13.83 43.9858 16.1721 46.3279C18.5142 48.67 21.6878 49.9901 25 50H62.5C65.8122 49.9901 68.9858 48.67 71.3279 46.3279C73.67 43.9858 74.9901 40.8122 75 37.5V18.75C74.9901 15.4378 73.67 12.2642 71.3279 9.92209C68.9858 7.58003 65.8122 6.25989 62.5 6.25V6.25ZM62.5 37.5H25V12.5H37.5L43.75 18.75H62.5V37.5Z" fill="#106085"/>
</svg>
