<svg width="120" height="120" viewBox="0 0 120 120" fill="none" xmlns="http://www.w3.org/2000/svg">
<path d="M45 0H0V45H45V0ZM37.5 37.5H7.5V7.5H37.5V37.5Z" fill="#106085"/>
<path d="M15 15H30V30H15V15Z" fill="#106085"/>
<path d="M0 120H45V75H0V120ZM7.5 82.5H37.5V112.5H7.5V82.5Z" fill="#106085"/>
<path d="M15 90H30V105H15V90Z" fill="#106085"/>
<path d="M75 0V45H120V0H75ZM112.5 37.5H82.5V7.5H112.5V37.5Z" fill="#106085"/>
<path d="M90 15H105V30H90V15Z" fill="#106085"/>
<path d="M15 52.5H0V67.5H22.5V60H15V52.5Z" fill="#106085"/>
<path d="M52.5 67.5H67.5V82.5H52.5V67.5Z" fill="#106085"/>
<path d="M22.5 52.5H37.5V60H22.5V52.5Z" fill="#106085"/>
<path d="M67.5 90H52.5V97.5H60V105H67.5V97.5V90Z" fill="#106085"/>
<path d="M45 52.5V60H37.5V67.5H52.5V52.5H45Z" fill="#106085"/>
<path d="M60 30H67.5V45H60V30Z" fill="#106085"/>
<path d="M67.5 60V67.5H82.5V52.5H60V60H67.5Z" fill="#106085"/>
<path d="M52.5 45H60V52.5H52.5V45Z" fill="#106085"/>
<path d="M67.5 105H82.5V120H67.5V105Z" fill="#106085"/>
<path d="M52.5 105H60V120H52.5V105Z" fill="#106085"/>
<path d="M67.5 82.5H75V90H67.5V82.5Z" fill="#106085"/>
<path d="M67.5 22.5V7.5H60V0H52.5V30H60V22.5H67.5Z" fill="#106085"/>
<path d="M90 105H97.5V120H90V105Z" fill="#106085"/>
<path d="M90 90H105V97.5H90V90Z" fill="#106085"/>
<path d="M82.5 97.5H90V105H82.5V97.5Z" fill="#106085"/>
<path d="M75 90H82.5V97.5H75V90Z" fill="#106085"/>
<path d="M105 75V82.5H112.5V90H120V75H112.5H105Z" fill="#106085"/>
<path d="M112.5 97.5H105V120H120V105H112.5V97.5Z" fill="#106085"/>
<path d="M75 75V82.5H97.5V67.5H82.5V75H75Z" fill="#106085"/>
<path d="M90 52.5V60H105V67.5H120V52.5H105H90Z" fill="#106085"/>
</svg>
