<svg width="75" height="76" viewBox="0 0 75 76" fill="none" xmlns="http://www.w3.org/2000/svg">
<path d="M68.75 27.3167V52.7605C68.7502 55.3547 67.7576 57.8506 65.976 59.7362C64.1944 61.6219 61.7588 62.7543 59.1688 62.9011L58.5938 62.9167H16.4062C13.8121 62.9169 11.3162 61.9244 9.43053 60.1428C7.5449 58.3612 6.4125 55.9255 6.26563 53.3355L6.25 52.7605V27.3167L36.4125 43.1167C36.7481 43.2925 37.1212 43.3843 37.5 43.3843C37.8788 43.3843 38.2519 43.2925 38.5875 43.1167L68.75 27.3167ZM16.4062 12.9167H58.5938C61.1112 12.9164 63.539 13.8511 65.4064 15.5395C67.2737 17.2278 68.4475 19.5495 68.7 22.0542L37.5 38.398L6.3 22.0542C6.54226 19.649 7.63453 17.409 9.38047 15.7369C11.1264 14.0649 13.4115 13.0705 15.825 12.9324L16.4062 12.9167H58.5938H16.4062Z" fill="#106085"/>
</svg>
