<svg width="151" height="150" viewBox="0 0 151 150" fill="none" xmlns="http://www.w3.org/2000/svg">
<path d="M87.625 114.5C80.8082 111.205 74.9538 106.212 70.625 100H18.875V25H131.375V39.125C136.435 42.6814 140.693 47.259 143.875 52.5625V25C143.875 21.6848 142.558 18.5054 140.214 16.1612C137.87 13.817 134.69 12.5 131.375 12.5H18.875C15.5598 12.5 12.3804 13.817 10.0362 16.1612C7.69196 18.5054 6.375 21.6848 6.375 25V100C6.375 103.315 7.69196 106.495 10.0362 108.839C12.3804 111.183 15.5598 112.5 18.875 112.5H62.625V125H50.125V137.5H100.125V125H87.625V114.5Z" fill="#106085"/>
<path d="M106.375 37.5C98.9582 37.5 91.708 39.6993 85.5411 43.8199C79.3743 47.9404 74.5678 53.7971 71.7295 60.6494C68.8912 67.5016 68.1486 75.0416 69.5956 82.3159C71.0425 89.5902 74.614 96.272 79.8585 101.517C85.103 106.761 91.7848 110.333 99.0591 111.779C106.333 113.226 113.873 112.484 120.726 109.645C127.578 106.807 133.435 102.001 137.555 95.8339C141.676 89.667 143.875 82.4168 143.875 75C143.875 65.0544 139.924 55.5161 132.892 48.4835C125.859 41.4509 116.321 37.5 106.375 37.5ZM106.375 84.375C104.521 84.375 102.708 83.8252 101.167 82.795C99.6248 81.7649 98.4232 80.3007 97.7136 78.5877C97.0041 76.8746 96.8184 74.9896 97.1802 73.171C97.5419 71.3525 98.4348 69.682 99.7459 68.3709C101.057 67.0598 102.727 66.1669 104.546 65.8051C106.365 65.4434 108.25 65.6291 109.963 66.3386C111.676 67.0482 113.14 68.2498 114.17 69.7915C115.2 71.3332 115.75 73.1458 115.75 75C115.75 77.4864 114.762 79.871 113.004 81.6291C111.246 83.3873 108.861 84.375 106.375 84.375Z" fill="#106085"/>
</svg>
