<svg width="70" height="71" viewBox="0 0 70 71" fill="none" xmlns="http://www.w3.org/2000/svg">
<path fill-rule="evenodd" clip-rule="evenodd" d="M2.91675 9.19428C2.91675 7.77249 3.48155 6.40895 4.4869 5.40359C5.49225 4.39824 6.8558 3.83344 8.27758 3.83344H61.7167C62.4213 3.83229 63.1192 3.97013 63.7705 4.23905C64.4217 4.50798 65.0136 4.90272 65.512 5.40067C66.0105 5.89863 66.4059 6.49001 66.6756 7.14097C66.9452 7.79193 67.0838 8.48968 67.0834 9.19428V62.6334C67.0842 63.3382 66.946 64.0361 66.6767 64.6874C66.4075 65.3387 66.0125 65.9305 65.5143 66.4289C65.0161 66.9274 64.4245 67.3227 63.7734 67.5923C63.1223 67.8619 62.4244 68.0005 61.7197 68.0001H8.27758C7.57334 68.0001 6.876 67.8614 6.22541 67.5918C5.57481 67.3222 4.98371 66.927 4.48587 66.4289C3.98803 65.9308 3.59322 65.3395 3.32398 64.6888C3.05475 64.038 2.91637 63.3406 2.91675 62.6364V9.19428ZM28.3151 28.2984H37.0038V32.6618C38.258 30.1534 41.4663 27.8959 46.2876 27.8959C55.5305 27.8959 57.7209 32.8922 57.7209 42.0593V59.0401H48.3672V44.1476C48.3672 38.9268 47.113 35.9809 43.928 35.9809C39.5092 35.9809 37.6717 39.1572 37.6717 44.1476V59.0401H28.3151V28.2984ZM12.2734 58.6405H21.6301V27.8959H12.2734V58.6376V58.6405ZM22.9688 17.8684C22.9865 18.6696 22.8439 19.4662 22.5495 20.2114C22.2551 20.9567 21.8149 21.6357 21.2545 22.2085C20.6942 22.7814 20.025 23.2365 19.2864 23.5472C18.5478 23.8579 17.7545 24.018 16.9532 24.018C16.1519 24.018 15.3586 23.8579 14.62 23.5472C13.8814 23.2365 13.2123 22.7814 12.6519 22.2085C12.0916 21.6357 11.6513 20.9567 11.3569 20.2114C11.0625 19.4662 10.9199 18.6696 10.9376 17.8684C10.9722 16.2959 11.6212 14.7995 12.7456 13.6996C13.87 12.5997 15.3803 11.9838 16.9532 11.9838C18.5261 11.9838 20.0365 12.5997 21.1608 13.6996C22.2852 14.7995 22.9342 16.2959 22.9688 17.8684Z" fill="#106085"/>
</svg>
