<svg width="151" height="150" viewBox="0 0 151 150" fill="none" xmlns="http://www.w3.org/2000/svg">
<g clip-path="url(#clip0_36_45)">
<path fill-rule="evenodd" clip-rule="evenodd" d="M73.0312 28.125H136.688L141.469 32.8125V75.0656C138.54 72.8543 135.362 70.9947 132 69.525V56.1562H72.8438L64.7812 64.2188L61.5 65.625H19.4062V121.875H67.3125C67.9688 125.137 68.9719 128.269 70.275 131.25H14.9062L10.2188 126.562V23.4375L14.9062 18.75H61.7812L65.0625 20.1563L73.0312 28.125ZM70.9687 46.875H131.906L132 37.5938H71.0625L67.6875 36.1875L59.7187 28.2188H19.5V56.3438H59.625L67.6875 48.2812L70.9687 46.875Z" fill="#106085"/>
<path fill-rule="evenodd" clip-rule="evenodd" d="M92.419 81.3187C96.5131 78.5524 101.114 76.6224 105.956 75.6398C110.798 74.6571 115.787 74.6412 120.636 75.5928C125.485 76.5444 130.097 78.4449 134.209 81.1849C138.321 83.925 141.851 87.4506 144.595 91.5592C147.34 95.6678 149.246 100.278 150.203 105.126C151.161 109.973 151.15 114.962 150.173 119.806C149.196 124.649 147.272 129.252 144.51 133.349C141.748 137.447 138.204 140.958 134.081 143.681C125.811 149.144 115.715 151.11 105.999 149.15C96.2828 147.19 87.738 141.464 82.232 133.222C76.7261 124.981 74.7069 114.895 76.6158 105.169C78.5246 95.4426 84.2064 86.8678 92.419 81.3187ZM112.388 128.1L134.766 98.2687L127.266 92.6437L107.794 118.603L95.5971 108.844L89.7377 116.156L105.713 128.944L112.397 128.1H112.388Z" fill="#106085"/>
</g>
<defs>
<clipPath id="clip0_36_45">
<rect width="150" height="150" fill="white" transform="translate(0.75)"/>
</clipPath>
</defs>
</svg>
