<svg width="151" height="150" viewBox="0 0 151 150" fill="none" xmlns="http://www.w3.org/2000/svg">
<path d="M125.5 12.5H63C59.6848 12.5 56.5054 13.817 54.1612 16.1612C51.817 18.5054 50.5 21.6848 50.5 25V37.5H100.5C103.815 37.5 106.995 38.817 109.339 41.1612C111.683 43.5054 113 46.6848 113 50V100H125.5C128.815 100 131.995 98.683 134.339 96.3388C136.683 93.9946 138 90.8152 138 87.5V25C138 21.6848 136.683 18.5054 134.339 16.1612C131.995 13.817 128.815 12.5 125.5 12.5Z" fill="#106085"/>
<path d="M25.5 137.5H88C94.8938 137.5 100.5 131.894 100.5 125V62.5C100.5 55.6062 94.8938 50 88 50H25.5C18.6062 50 13 55.6062 13 62.5V125C13 131.894 18.6062 137.5 25.5 137.5ZM38 75H75.5V87.5H38V75ZM38 100H75.5V112.5H38V100Z" fill="#106085"/>
</svg>
