<svg width="76" height="76" viewBox="0 0 76 76" fill="none" xmlns="http://www.w3.org/2000/svg">
<path d="M69.25 20.8855C69.2149 19.5373 69.1106 18.1918 68.9375 16.8542C68.7042 15.6828 68.3153 14.5477 67.7813 13.4792C67.2227 12.3202 66.4726 11.2637 65.5625 10.3542C64.644 9.45489 63.5894 8.70609 62.4375 8.1355C61.3676 7.61189 60.2326 7.23354 59.0625 7.0105C57.7377 6.81206 56.4017 6.69725 55.0625 6.66675H20.9688C19.6205 6.70186 18.275 6.80617 16.9375 6.97925C15.766 7.21259 14.631 7.60145 13.5625 8.1355C12.4035 8.69405 11.347 9.44416 10.4375 10.3542C9.53814 11.2727 8.78935 12.3274 8.21875 13.4792C7.69514 14.5491 7.31679 15.6842 7.09375 16.8542C6.89531 18.179 6.7805 19.515 6.75 20.8542V54.948C6.78511 56.2962 6.88942 57.6417 7.0625 58.9792C7.29584 60.1507 7.6847 61.2858 8.21875 62.3542C8.7773 63.5133 9.52741 64.5698 10.4375 65.4792C11.356 66.3786 12.4106 67.1274 13.5625 67.698C14.6324 68.2216 15.7674 68.6 16.9375 68.823C18.2623 69.0214 19.5983 69.1362 20.9375 69.1667H55.0313C56.3795 69.1316 57.725 69.0273 59.0625 68.8542C60.234 68.6209 61.369 68.2321 62.4375 67.698C63.5965 67.1394 64.653 66.3893 65.5625 65.4792C66.4619 64.5608 67.2107 63.5061 67.7813 62.3542C68.3049 61.2844 68.6832 60.1493 68.9062 58.9792C69.1047 57.6545 69.2195 56.3185 69.25 54.9792V22.5417V20.8855ZM38.7187 59.7917C34.9658 59.7732 31.2785 58.8057 28 56.9792L16.125 60.1042L19.25 48.4792C17.2347 45.0932 16.1562 41.232 16.125 37.2917C16.1374 32.8634 17.46 28.5377 19.9261 24.8596C22.3922 21.1814 25.8916 18.3153 29.9835 16.6221C34.0754 14.9289 38.5769 14.4845 42.9209 15.3447C47.2649 16.2049 51.2573 18.3313 54.3951 21.4561C57.5329 24.581 59.6759 28.5644 60.5542 32.9048C61.4325 37.2452 61.0067 41.7485 59.3306 45.8474C57.6544 49.9463 54.8029 53.4576 51.135 55.939C47.4671 58.4204 43.147 59.7609 38.7187 59.7917ZM38.7187 18.7605C35.4057 18.7984 32.1618 19.7136 29.3174 21.4128C26.473 23.112 24.1296 25.5347 22.5259 28.434C20.9222 31.3333 20.1155 34.6059 20.1878 37.9184C20.2601 41.2309 21.2088 44.4651 22.9375 47.2917L23.375 48.0105L21.5 54.8542L28.625 52.9167L29.3125 53.323C32.1549 54.9972 35.3887 55.8919 38.6875 55.9167C43.6603 55.9167 48.4294 53.9413 51.9458 50.425C55.4621 46.9087 57.4375 42.1396 57.4375 37.1667C57.4375 32.1939 55.4621 27.4248 51.9458 23.9085C48.4294 20.3922 43.6603 18.4167 38.6875 18.4167L38.7187 18.7605ZM49.6562 45.3855C49.2469 46.0682 48.6989 46.6574 48.0476 47.115C47.3962 47.5725 46.6561 47.8882 45.875 48.0417C44.7079 48.2551 43.5064 48.18 42.375 47.823C41.3105 47.4902 40.2669 47.0936 39.25 46.6355C35.3867 44.6969 32.092 41.7899 29.6875 38.198C28.3809 36.5339 27.5881 34.5247 27.4062 32.4167C27.3876 31.5411 27.5533 30.6713 27.8925 29.8638C28.2316 29.0562 28.7367 28.329 29.375 27.7292C29.563 27.5161 29.7937 27.3447 30.052 27.2263C30.3104 27.1079 30.5908 27.045 30.875 27.0417H31.75C32.0938 27.0417 32.5625 27.0417 33 28.0105C33.4375 28.9792 34.5938 31.8855 34.75 32.1667C34.8268 32.3167 34.8668 32.4827 34.8668 32.6511C34.8668 32.8196 34.8268 32.9856 34.75 33.1355C34.6119 33.4751 34.4221 33.7913 34.1875 34.073C33.9062 34.4167 33.5938 34.823 33.3438 35.073C33.0938 35.323 32.7812 35.6355 33.0938 36.198C33.944 37.633 34.9965 38.938 36.2188 40.073C37.5498 41.2491 39.0716 42.1897 40.7188 42.8542C41.2812 43.1355 41.625 43.1042 41.9375 42.8542C42.25 42.6042 43.3438 41.2292 43.7188 40.6667C44.0938 40.1042 44.4688 40.198 44.9688 40.3855C45.4688 40.573 48.25 41.9167 48.8125 42.198C49.375 42.4792 49.7188 42.6042 49.875 42.8542C50.0105 43.6721 49.9352 44.5111 49.6562 45.2917V45.3855Z" fill="#106085"/>
</svg>
